<svg width="24" height="25" viewBox="0 0 24 25" fill="none" xmlns="http://www.w3.org/2000/svg">
<mask id="mask0_2906_17006" style="mask-type:alpha" maskUnits="userSpaceOnUse" x="0" y="0" width="24" height="25">
<rect y="0.5" width="24" height="24" fill="#D9D9D9"/>
</mask>
<g mask="url(#mask0_2906_17006)">
<path d="M12.0016 22.5C10.7516 22.5 9.58073 22.2625 8.48906 21.7875C7.3974 21.3125 6.4474 20.6708 5.63906 19.8625C4.83073 19.0542 4.18906 18.1042 3.71406 17.0125C3.23906 15.9208 3.00156 14.75 3.00156 13.5C3.00156 12.25 3.23906 11.0792 3.71406 9.98751C4.18906 8.89584 4.83073 7.94584 5.63906 7.13751C6.4474 6.32917 7.3974 5.68751 8.48906 5.21251C9.58073 4.73751 10.7516 4.50001 12.0016 4.50001C13.2516 4.50001 14.4224 4.73751 15.5141 5.21251C16.6057 5.68751 17.5557 6.32917 18.3641 7.13751C19.1724 7.94584 19.8141 8.89584 20.2891 9.98751C20.7641 11.0792 21.0016 12.25 21.0016 13.5C21.0016 14.75 20.7641 15.9208 20.2891 17.0125C19.8141 18.1042 19.1724 19.0542 18.3641 19.8625C17.5557 20.6708 16.6057 21.3125 15.5141 21.7875C14.4224 22.2625 13.2516 22.5 12.0016 22.5ZM14.8016 17.7L16.2016 16.3L13.0016 13.1V8.50001H11.0016V13.9L14.8016 17.7ZM5.60156 2.85001L7.00156 4.25001L2.75156 8.50001L1.35156 7.10001L5.60156 2.85001ZM18.4016 2.85001L22.6516 7.10001L21.2516 8.50001L17.0016 4.25001L18.4016 2.85001ZM12.0016 20.5C13.9516 20.5 15.6057 19.8208 16.9641 18.4625C18.3224 17.1042 19.0016 15.45 19.0016 13.5C19.0016 11.55 18.3224 9.89584 16.9641 8.53751C15.6057 7.17917 13.9516 6.50001 12.0016 6.50001C10.0516 6.50001 8.3974 7.17917 7.03906 8.53751C5.68073 9.89584 5.00156 11.55 5.00156 13.5C5.00156 15.45 5.68073 17.1042 7.03906 18.4625C8.3974 19.8208 10.0516 20.5 12.0016 20.5Z" fill="#4B5D69"/>
</g>
</svg>
