<svg width="24" height="24" viewBox="0 0 24 24" fill="none" xmlns="http://www.w3.org/2000/svg">
<rect opacity="0.01" width="24" height="24" fill="#4B5D69"/>
<path fill-rule="evenodd" clip-rule="evenodd" d="M10.6227 4.28564C10.0126 4.28564 9.51807 4.78021 9.51807 5.39028C9.51807 6.00036 10.0126 6.49492 10.6227 6.49492H18.7259C19.336 6.49492 19.8306 6.00036 19.8306 5.39028C19.8306 4.78021 19.336 4.28564 18.7259 4.28564H10.6227ZM10.6227 12.8941C10.0126 12.8941 9.51807 13.3887 9.51807 13.9987C9.51807 14.6088 10.0126 15.1034 10.6227 15.1034H18.7259C19.336 15.1034 19.8306 14.6088 19.8306 13.9987C19.8306 13.3887 19.336 12.8941 18.7259 12.8941H10.6227ZM7.45557 7.29307C7.45557 8.48394 6.49018 9.44932 5.29932 9.44932C4.10845 9.44932 3.14307 8.48394 3.14307 7.29307C3.14307 6.10221 4.10845 5.13682 5.29932 5.13682C6.49018 5.13682 7.45557 6.10221 7.45557 7.29307ZM5.29932 18.0578C6.49018 18.0578 7.45557 17.0924 7.45557 15.9015C7.45557 14.7107 6.49018 13.7453 5.29932 13.7453C4.10845 13.7453 3.14307 14.7107 3.14307 15.9015C3.14307 17.0924 4.10845 18.0578 5.29932 18.0578ZM9.51807 9.52826C9.51807 8.91818 10.0126 8.42362 10.6227 8.42362H18.7259C19.336 8.42362 19.8306 8.91818 19.8306 9.52826C19.8306 10.1383 19.336 10.6329 18.7259 10.6329H10.6227C10.0126 10.6329 9.51807 10.1383 9.51807 9.52826ZM10.6227 17.0321C10.0126 17.0321 9.51807 17.5266 9.51807 18.1367C9.51807 18.7468 10.0126 19.2414 10.6227 19.2414H14.4697C15.0798 19.2414 15.5743 18.7468 15.5743 18.1367C15.5743 17.5266 15.0798 17.0321 14.4697 17.0321H10.6227Z" fill="#4B5D69"/>
</svg>
