<svg width="28" height="24" viewBox="0 0 28 24" fill="none" xmlns="http://www.w3.org/2000/svg">
<rect opacity="0.01" x="0.5" width="27" height="24" fill="#4B5D69"/>
<path fill-rule="evenodd" clip-rule="evenodd" d="M3.71389 10.8377L3.67502 10.874C2.41356 12.0796 3.25437 14.2416 5.01005 14.2416H5.639L5.6392 19.2035C5.6392 20.2822 6.5059 21.1567 7.57504 21.1567H9.6748V21.1586H17.6118V21.1567H19.5176L19.5718 21.1559C20.6159 21.127 21.4535 20.2639 21.4535 19.2035V14.2416H22.0826C23.856 14.2416 24.696 12.0357 23.3788 10.8377L14.8425 3.07384C14.1059 2.40393 12.9867 2.40393 12.2502 3.07384L3.71389 10.8377ZM13.5462 4.52459L22.0825 12.2885H19.5175V19.2035H15.2699H11.8225H7.57489V12.2885H5.00991L13.5462 4.52459Z" fill="#4B5D69"/>
</svg>
