<svg width="24" height="24" viewBox="0 0 24 24" fill="none" xmlns="http://www.w3.org/2000/svg">
<mask id="mask0_2906_16959" style="mask-type:alpha" maskUnits="userSpaceOnUse" x="0" y="0" width="24" height="24">
<rect width="24" height="24" fill="#D9D9D9"/>
</mask>
<g mask="url(#mask0_2906_16959)">
<path d="M12 12.0001C12.55 12.0001 13.0208 11.8042 13.4125 11.4126C13.8042 11.0209 14 10.5501 14 10.0001C14 9.45006 13.8042 8.97923 13.4125 8.58756C13.0208 8.19589 12.55 8.00006 12 8.00006C11.45 8.00006 10.9792 8.19589 10.5875 8.58756C10.1958 8.97923 10 9.45006 10 10.0001C10 10.5501 10.1958 11.0209 10.5875 11.4126C10.9792 11.8042 11.45 12.0001 12 12.0001ZM12 19.3501C14.0333 17.4834 15.5417 15.7876 16.525 14.2626C17.5083 12.7376 18 11.3834 18 10.2001C18 8.38339 17.4208 6.89589 16.2625 5.73756C15.1042 4.57923 13.6833 4.00006 12 4.00006C10.3167 4.00006 8.89583 4.57923 7.7375 5.73756C6.57917 6.89589 6 8.38339 6 10.2001C6 11.3834 6.49167 12.7376 7.475 14.2626C8.45833 15.7876 9.96667 17.4834 12 19.3501ZM12 22.0001C9.31667 19.7167 7.3125 17.5959 5.9875 15.6376C4.6625 13.6792 4 11.8667 4 10.2001C4 7.70006 4.80417 5.70839 6.4125 4.22506C8.02083 2.74173 9.88333 2.00006 12 2.00006C14.1167 2.00006 15.9792 2.74173 17.5875 4.22506C19.1958 5.70839 20 7.70006 20 10.2001C20 11.8667 19.3375 13.6792 18.0125 15.6376C16.6875 17.5959 14.6833 19.7167 12 22.0001Z" fill="#4B5D69"/>
</g>
</svg>
