<svg width="24" height="24" viewBox="0 0 24 24" fill="none" xmlns="http://www.w3.org/2000/svg">
<mask id="mask0_2906_16938" style="mask-type:alpha" maskUnits="userSpaceOnUse" x="0" y="0" width="24" height="24">
<rect width="24" height="24" fill="#D9D9D9"/>
</mask>
<g mask="url(#mask0_2906_16938)">
<path d="M15.0765 21.2615L8.92654 19.1115L4.12271 20.9769C3.77785 21.1077 3.45894 21.0708 3.16599 20.8663C2.87304 20.6619 2.72656 20.3705 2.72656 19.9923V5.52699C2.72656 5.31289 2.79195 5.11481 2.92274 4.93276C3.0535 4.75071 3.22273 4.62443 3.43041 4.55391L8.92654 2.68854L15.0765 4.83854L19.8804 2.97316C20.2252 2.8424 20.5441 2.87861 20.8371 3.08181C21.13 3.28501 21.2765 3.58085 21.2765 3.96931V18.4116C21.2765 18.6321 21.2147 18.8317 21.0909 19.0106C20.9672 19.1894 20.7983 19.3141 20.5842 19.3846L15.0765 21.2615ZM16.1265 18.627L19.1265 17.65V5.55004L16.1265 6.72696V18.627ZM4.87654 18.4L7.87656 17.2539V5.30389L4.87654 6.30004V18.4Z" fill="#4B5D69"/>
</g>
</svg>
