<svg width="24" height="24" viewBox="0 0 24 24" fill="none" xmlns="http://www.w3.org/2000/svg">
<mask id="mask0_2906_16991" style="mask-type:alpha" maskUnits="userSpaceOnUse" x="0" y="0" width="24" height="24">
<rect width="24" height="24" fill="#D9D9D9"/>
</mask>
<g mask="url(#mask0_2906_16991)">
<path d="M11 16.8942C10.8961 16.8942 10.8105 16.8641 10.7432 16.8039C10.676 16.7436 10.6264 16.6695 10.5947 16.5815C10.3726 15.9656 10.1098 15.4441 9.8064 15.0168C9.50298 14.5895 9.19957 14.1775 8.89615 13.7808C8.5564 13.3346 8.26441 12.8782 8.02018 12.4116C7.77594 11.9449 7.65383 11.3718 7.65383 10.6923C7.65383 9.76815 7.98048 8.97941 8.63378 8.32613C9.28708 7.67283 10.0758 7.34618 11 7.34618C11.9241 7.34618 12.7129 7.67283 13.3662 8.32613C14.0195 8.97941 14.3461 9.76815 14.3461 10.6923C14.3461 11.3718 14.224 11.9449 13.9798 12.4116C13.7355 12.8782 13.4436 13.3346 13.1038 13.7808C12.8004 14.1775 12.497 14.5895 12.1936 15.0168C11.8901 15.4441 11.6282 15.966 11.4077 16.5827C11.3743 16.6763 11.324 16.7516 11.2567 16.8087C11.1894 16.8657 11.1038 16.8942 11 16.8942ZM11.0013 11.8462C11.3248 11.8462 11.5977 11.7345 11.8202 11.5112C12.0426 11.2878 12.1538 11.0144 12.1538 10.691C12.1538 10.3675 12.0421 10.0946 11.8188 9.87213C11.5955 9.6497 11.3221 9.53848 10.9986 9.53848C10.6752 9.53848 10.4022 9.65016 10.1798 9.87351C9.95735 10.0968 9.84613 10.3702 9.84613 10.6937C9.84613 11.0171 9.9578 11.2901 10.1812 11.5125C10.4045 11.7349 10.6779 11.8462 11.0013 11.8462ZM11 20.5C8.63888 20.5 6.63194 19.6737 4.97918 18.0212C3.32639 16.3687 2.5 14.3621 2.5 12.0013C2.5 10.821 2.72308 9.7154 3.16925 8.68463C3.6154 7.65386 4.2218 6.75515 4.98845 5.98848C5.75512 5.22183 6.65365 4.61543 7.68405 4.16928C8.71445 3.72311 9.81958 3.50003 10.9994 3.50003C12.1793 3.50003 13.2846 3.72311 14.3154 4.16928C15.3461 4.61543 16.2448 5.22183 17.0115 5.98848C17.7782 6.75515 18.3846 7.65374 18.8307 8.68426C19.2769 9.71477 19.5 10.82 19.5 12V12.8058L21.1807 11.1L22.25 12.1442L18.75 15.6442L15.25 12.1442L16.3192 11.1L18 12.7808V12C18 10.0667 17.3166 8.41667 15.95 7.05001C14.5833 5.68334 12.9333 5.00001 11 5.00001C9.06664 5.00001 7.41664 5.68334 6.04998 7.05001C4.68331 8.41667 3.99998 10.0667 3.99998 12C4.01023 13.9398 4.69452 15.5914 6.05285 16.9548C7.41118 18.3183 9.06023 19 11 19C11.9436 19 12.8208 18.8272 13.6317 18.4817C14.4426 18.1362 15.1711 17.6616 15.8173 17.0577L16.8961 18.1269C16.1115 18.8692 15.2153 19.4503 14.2077 19.8702C13.2 20.29 12.1307 20.5 11 20.5Z" fill="#4B5D69"/>
</g>
</svg>
