<svg width="24" height="24" viewBox="0 0 24 24" fill="none" xmlns="http://www.w3.org/2000/svg">
<mask id="mask0_2906_16986" style="mask-type:alpha" maskUnits="userSpaceOnUse" x="0" y="0" width="24" height="24">
<rect width="24" height="24" fill="#D9D9D9"/>
</mask>
<g mask="url(#mask0_2906_16986)">
<path d="M11 19.425V12.575L5 9.10003V15.95L11 19.425ZM13 19.425L19 15.95V9.10003L13 12.575V19.425ZM11 21.725L4 17.7C3.68333 17.5167 3.4375 17.275 3.2625 16.975C3.0875 16.675 3 16.3417 3 15.975V8.02503C3 7.65836 3.0875 7.32503 3.2625 7.02503C3.4375 6.72503 3.68333 6.48336 4 6.30003L11 2.27503C11.3167 2.0917 11.65 2.00003 12 2.00003C12.35 2.00003 12.6833 2.0917 13 2.27503L20 6.30003C20.3167 6.48336 20.5625 6.72503 20.7375 7.02503C20.9125 7.32503 21 7.65836 21 8.02503V15.975C21 16.3417 20.9125 16.675 20.7375 16.975C20.5625 17.275 20.3167 17.5167 20 17.7L13 21.725C12.6833 21.9084 12.35 22 12 22C11.65 22 11.3167 21.9084 11 21.725ZM16 8.52503L17.925 7.42503L12 4.00003L10.05 5.12503L16 8.52503ZM12 10.85L13.95 9.72503L8.025 6.30003L6.075 7.42503L12 10.85Z" fill="#4B5D69"/>
</g>
</svg>
