<svg width="24" height="24" viewBox="0 0 24 24" fill="none" xmlns="http://www.w3.org/2000/svg">
<mask id="mask0_3203_6298" style="mask-type:alpha" maskUnits="userSpaceOnUse" x="0" y="0" width="24" height="24">
<rect width="24" height="24" fill="#D9D9D9"/>
</mask>
<g mask="url(#mask0_3203_6298)">
<path d="M5 22C4.45 22 3.97917 21.8042 3.5875 21.4125C3.19583 21.0208 3 20.55 3 20V8C3 7.45 3.19583 6.97917 3.5875 6.5875C3.97917 6.19583 4.45 6 5 6H6V1H18V6H19C19.55 6 20.0208 6.19583 20.4125 6.5875C20.8042 6.97917 21 7.45 21 8V20C21 20.55 20.8042 21.0208 20.4125 21.4125C20.0208 21.8042 19.55 22 19 22H5ZM8 6H16V3H8V6ZM5 20H19V8H5V20ZM12 19C13.3833 19 14.5625 18.5125 15.5375 17.5375C16.5125 16.5625 17 15.3833 17 14C17 12.6167 16.5125 11.4375 15.5375 10.4625C14.5625 9.4875 13.3833 9 12 9C10.6167 9 9.4375 9.4875 8.4625 10.4625C7.4875 11.4375 7 12.6167 7 14C7 15.3833 7.4875 16.5625 8.4625 17.5375C9.4375 18.5125 10.6167 19 12 19ZM12 17.5C11.0333 17.5 10.2083 17.1583 9.525 16.475C8.84167 15.7917 8.5 14.9667 8.5 14C8.5 13.0333 8.84167 12.2083 9.525 11.525C10.2083 10.8417 11.0333 10.5 12 10.5C12.9667 10.5 13.7917 10.8417 14.475 11.525C15.1583 12.2083 15.5 13.0333 15.5 14C15.5 14.9667 15.1583 15.7917 14.475 16.475C13.7917 17.1583 12.9667 17.5 12 17.5ZM13.15 15.85L13.85 15.15L12.5 13.8V11.5H11.5V14.2L13.15 15.85Z" fill="#4B5D69"/>
</g>
</svg>
