<svg width="24" height="24" viewBox="0 0 24 24" fill="none" xmlns="http://www.w3.org/2000/svg">
<mask id="mask0_2906_16996" style="mask-type:alpha" maskUnits="userSpaceOnUse" x="0" y="0" width="24" height="24">
<rect width="24" height="24" fill="#D9D9D9"/>
</mask>
<g mask="url(#mask0_2906_16996)">
<path d="M7 14C7.28333 14 7.52083 13.9042 7.7125 13.7125C7.90417 13.5209 8 13.2834 8 13C8 12.7167 7.90417 12.4792 7.7125 12.2875C7.52083 12.0959 7.28333 12 7 12C6.71667 12 6.47917 12.0959 6.2875 12.2875C6.09583 12.4792 6 12.7167 6 13C6 13.2834 6.09583 13.5209 6.2875 13.7125C6.47917 13.9042 6.71667 14 7 14ZM7 11C7.28333 11 7.52083 10.9042 7.7125 10.7125C7.90417 10.5209 8 10.2834 8 10C8 9.7167 7.90417 9.4792 7.7125 9.28753C7.52083 9.09586 7.28333 9.00003 7 9.00003C6.71667 9.00003 6.47917 9.09586 6.2875 9.28753C6.09583 9.4792 6 9.7167 6 10C6 10.2834 6.09583 10.5209 6.2875 10.7125C6.47917 10.9042 6.71667 11 7 11ZM7 8.00003C7.28333 8.00003 7.52083 7.9042 7.7125 7.71253C7.90417 7.52086 8 7.28336 8 7.00003C8 6.7167 7.90417 6.4792 7.7125 6.28753C7.52083 6.09586 7.28333 6.00003 7 6.00003C6.71667 6.00003 6.47917 6.09586 6.2875 6.28753C6.09583 6.4792 6 6.7167 6 7.00003C6 7.28336 6.09583 7.52086 6.2875 7.71253C6.47917 7.9042 6.71667 8.00003 7 8.00003ZM10 14H15V12H10V14ZM10 11H18V9.00003H10V11ZM10 8.00003H18V6.00003H10V8.00003ZM2 22V4.00003C2 3.45003 2.19583 2.9792 2.5875 2.58753C2.97917 2.19586 3.45 2.00003 4 2.00003H20C20.55 2.00003 21.0208 2.19586 21.4125 2.58753C21.8042 2.9792 22 3.45003 22 4.00003V16C22 16.55 21.8042 17.0209 21.4125 17.4125C21.0208 17.8042 20.55 18 20 18H6L2 22ZM5.15 16H20V4.00003H4V17.125L5.15 16Z" fill="#4B5D69"/>
</g>
</svg>
