<svg width="28" height="24" viewBox="0 0 28 24" fill="none" xmlns="http://www.w3.org/2000/svg">
<rect opacity="0.01" x="0.5" width="27" height="24" fill="#4B5D69"/>
<path fill-rule="evenodd" clip-rule="evenodd" d="M20.3516 4.55356C20.3516 3.93224 20.8552 3.42856 21.4766 3.42856C22.0979 3.42856 22.6016 3.93224 22.6016 4.55356V17.3036C22.6016 17.9249 22.0979 18.4286 21.4766 18.4286C20.8552 18.4286 20.3516 17.9249 20.3516 17.3036V4.55356ZM17.6328 4.52227C17.0115 4.52227 16.5078 5.02595 16.5078 5.64727V17.3035C16.5078 17.9248 17.0115 18.4285 17.6328 18.4285C18.2541 18.4285 18.7578 17.9248 18.7578 17.3035V5.64727C18.7578 5.02595 18.2541 4.52227 17.6328 4.52227ZM6.10156 12.8817C5.48024 12.8817 4.97656 13.3854 4.97656 14.0067V17.3036C4.97656 17.9249 5.48024 18.4286 6.10156 18.4286C6.72288 18.4286 7.22656 17.9249 7.22656 17.3036V14.0067C7.22656 13.3854 6.72288 12.8817 6.10156 12.8817ZM13.7891 9.83484C13.1677 9.83484 12.6641 10.3385 12.6641 10.9598V17.3036C12.6641 17.9249 13.1677 18.4286 13.7891 18.4286C14.4104 18.4286 14.9141 17.9249 14.9141 17.3036V10.9598C14.9141 10.3385 14.4104 9.83484 13.7891 9.83484ZM8.82031 7.05352C8.82031 6.4322 9.32399 5.92852 9.94531 5.92852C10.5666 5.92852 11.0703 6.4322 11.0703 7.05352V17.3035C11.0703 17.9248 10.5666 18.4285 9.94531 18.4285C9.32399 18.4285 8.82031 17.9248 8.82031 17.3035V7.05352ZM5.91406 19.1786C5.29274 19.1786 4.78906 19.6822 4.78906 20.3036C4.78906 20.9249 5.29274 21.4286 5.91406 21.4286H21.6641C22.2854 21.4286 22.7891 20.9249 22.7891 20.3036C22.7891 19.6822 22.2854 19.1786 21.6641 19.1786H5.91406Z" fill="#4B5D69"/>
</svg>
