<svg width="24" height="24" viewBox="0 0 24 24" fill="none" xmlns="http://www.w3.org/2000/svg">
<mask id="mask0_2906_17001" style="mask-type:alpha" maskUnits="userSpaceOnUse" x="0" y="0" width="24" height="24">
<rect width="24" height="24" fill="#D9D9D9"/>
</mask>
<g mask="url(#mask0_2906_17001)">
<path d="M21.0235 11.05V19C21.0235 19.55 20.8277 20.0208 20.436 20.4125C20.0443 20.8042 19.5735 21 19.0235 21H5.0235C4.4735 21 4.00267 20.8042 3.611 20.4125C3.21933 20.0208 3.0235 19.55 3.0235 19V11.05C2.64017 10.7 2.34433 10.25 2.136 9.7C1.92767 9.15 1.9235 8.55 2.1235 7.9L3.1735 4.5C3.30683 4.06667 3.54433 3.70833 3.886 3.425C4.22767 3.14167 4.6235 3 5.0735 3H18.9735C19.4235 3 19.8152 3.1375 20.1485 3.4125C20.4818 3.6875 20.7235 4.05 20.8735 4.5L21.9235 7.9C22.1235 8.55 22.1193 9.14167 21.911 9.675C21.7027 10.2083 21.4068 10.6667 21.0235 11.05ZM14.2235 10C14.6735 10 15.0152 9.84583 15.2485 9.5375C15.4818 9.22917 15.5735 8.88333 15.5235 8.5L14.9735 5H13.0235V8.7C13.0235 9.05 13.1402 9.35417 13.3735 9.6125C13.6068 9.87083 13.8902 10 14.2235 10ZM9.7235 10C10.1068 10 10.4193 9.87083 10.661 9.6125C10.9027 9.35417 11.0235 9.05 11.0235 8.7V5H9.0735L8.5235 8.5C8.45684 8.9 8.54433 9.25 8.786 9.55C9.02767 9.85 9.34017 10 9.7235 10ZM5.2735 10C5.5735 10 5.836 9.89167 6.061 9.675C6.286 9.45833 6.4235 9.18333 6.4735 8.85L7.0235 5H5.0735L4.0735 8.35C3.9735 8.68333 4.02767 9.04167 4.236 9.425C4.44433 9.80833 4.79017 10 5.2735 10ZM18.7735 10C19.2568 10 19.6068 9.80833 19.8235 9.425C20.0402 9.04167 20.0902 8.68333 19.9735 8.35L18.9235 5H17.0235L17.5735 8.85C17.6235 9.18333 17.761 9.45833 17.986 9.675C18.211 9.89167 18.4735 10 18.7735 10ZM5.0235 19H19.0235V11.95C18.9402 11.9833 18.886 12 18.861 12H18.7735C18.3235 12 17.9277 11.925 17.586 11.775C17.2443 11.625 16.9068 11.3833 16.5735 11.05C16.2735 11.35 15.9318 11.5833 15.5485 11.75C15.1652 11.9167 14.7568 12 14.3235 12C13.8735 12 13.4527 11.9167 13.061 11.75C12.6693 11.5833 12.3235 11.35 12.0235 11.05C11.7402 11.35 11.411 11.5833 11.036 11.75C10.661 11.9167 10.2568 12 9.8235 12C9.34017 12 8.90267 11.9167 8.511 11.75C8.11933 11.5833 7.7735 11.35 7.4735 11.05C7.1235 11.4 6.77767 11.6458 6.436 11.7875C6.09433 11.9292 5.70683 12 5.2735 12H5.161C5.11933 12 5.0735 11.9833 5.0235 11.95V19Z" fill="#4B5D69"/>
</g>
</svg>
