<svg width="28" height="24" viewBox="0 0 28 24" fill="none" xmlns="http://www.w3.org/2000/svg">
<rect opacity="0.01" x="0.5" width="27" height="24" fill="#4B5D69"/>
<path fill-rule="evenodd" clip-rule="evenodd" d="M21.3234 3.30784C20.8161 2.8675 20.0471 2.90211 19.5817 3.39527L19.546 3.43476C19.1056 3.94208 19.1403 4.71111 19.6334 5.17645L20.6335 6.12012H15.8171L15.7699 6.12099C15.0959 6.14583 14.5571 6.70006 14.5571 7.38014V13.8599L14.5579 13.9071C14.5828 14.5811 15.137 15.1199 15.8171 15.1199L20.2644 15.1197V18.4797H9.23921V17.0077L9.23834 16.9605C9.2135 16.2864 8.65926 15.7477 7.97919 15.7477C7.2833 15.7477 6.71917 16.3118 6.71917 17.0077V19.74L6.72004 19.7872C6.74488 20.4612 7.29911 21 7.97919 21H21.5244L21.5716 20.9991C22.2456 20.9743 22.7844 20.42 22.7844 19.74V13.8599L22.7835 13.8126C22.7587 13.1386 22.2045 12.5999 21.5244 12.5999L17.0769 12.5996V8.64003L20.206 8.64012L19.6334 9.1804L19.5954 9.21776C19.1264 9.69869 19.1164 10.4684 19.5817 10.9616C20.0593 11.4677 20.8568 11.4909 21.3629 11.0133L24.4557 8.09485L24.4933 8.05787C24.9824 7.55687 24.9699 6.74717 24.4557 6.262L21.3629 3.34359L21.3234 3.30784ZM4.56313 4.55567C6.4494 2.66941 9.50763 2.66941 11.3939 4.55567C13.2802 6.44193 13.2802 9.50017 11.3939 11.3864L7.97851 14.8018L4.56313 11.3864C2.67687 9.50017 2.67687 6.44193 4.56313 4.55567ZM9.61196 9.60448C10.4998 8.71667 10.5139 7.28601 9.65423 6.38097L9.61195 6.3376C8.70983 5.43547 7.2472 5.43547 6.34507 6.3376C5.44295 7.23972 5.44295 8.70235 6.34507 9.60448L7.97857 11.2379L9.61196 9.60448Z" fill="#4B5D69"/>
<circle cx="7.95657" cy="7.9822" r="1.0425" fill="#4B5D69"/>
</svg>
